<?xml version="1.0" encoding="UTF-8"?>
<svg version="1.1" xmlns="http://www.w3.org/2000/svg" width="512" height="512">
<path d="M0 0 C1.52753906 1.22203125 1.52753906 1.22203125 3.0859375 2.46875 C17.3342619 14.04606635 30.19230197 27.16123691 41 42 C41.48275391 42.64904297 41.96550781 43.29808594 42.46289062 43.96679688 C82.71119521 98.1650915 99.16439967 167.50590262 89.54345703 234.16308594 C86.11144526 256.4299519 80.25817176 278.41039793 71 299 C70.65243652 299.78117187 70.30487305 300.56234375 69.94677734 301.3671875 C59.42794615 324.79974248 45.92394897 345.72068916 29 365 C28.26136719 365.85078125 27.52273438 366.7015625 26.76171875 367.578125 C17.30726339 378.29432669 7.28592163 388.2185385 -4 397 C-5.43859375 398.16402344 -5.43859375 398.16402344 -6.90625 399.3515625 C-58.97340434 440.76861709 -127.78333939 458.90123079 -193.609375 451.6875 C-241.29538286 445.87803711 -286.32434498 427.92840907 -324 398 C-324.55461914 397.56252441 -325.10923828 397.12504883 -325.68066406 396.67431641 C-340.47137553 384.90550804 -353.95751062 371.35103586 -365 356 C-365.45036621 355.37802734 -365.90073242 354.75605469 -366.36474609 354.11523438 C-406.50186077 298.27961172 -423.92582348 229.66478401 -413.15234375 161.48046875 C-402.655433 98.75049276 -370.07875834 38.96658665 -319 0 C-318.45827148 -0.41813965 -317.91654297 -0.8362793 -317.35839844 -1.26708984 C-295.16346264 -18.32719052 -270.50597708 -31.97086096 -244 -41 C-243.10087891 -41.30921387 -242.20175781 -41.61842773 -241.27539062 -41.93701172 C-160.57892772 -69.24988036 -66.32453547 -54.15646824 0 0 Z " fill="#566372" transform="translate(418,57)"/>
<path d="M0 0 C0.77279297 -0.00983917 1.54558594 -0.01967834 2.34179688 -0.02981567 C39.22508848 -0.40269622 74.44221478 6.58123345 104.6796875 29.23828125 C105.47584473 29.81884277 105.47584473 29.81884277 106.28808594 30.41113281 C140.69820756 55.58975376 164.12166227 93.23239528 171.6796875 135.23828125 C172.46870303 140.73114018 172.86024 146.08360272 172.91796875 151.62890625 C172.92762665 152.40757553 172.93728455 153.18624481 172.94723511 153.98851013 C172.97191229 156.48848284 172.98460668 158.98820017 172.9921875 161.48828125 C172.99513824 162.33943512 172.99808899 163.19058899 173.00112915 164.0675354 C173.0112741 176.90816241 172.17227398 188.8216227 168.6796875 201.23828125 C168.339375 202.72134766 168.339375 202.72134766 167.9921875 204.234375 C161.35981354 232.13179799 145.51244164 256.94894572 125.6796875 277.23828125 C125.04160156 277.93824219 124.40351563 278.63820313 123.74609375 279.359375 C109.61099354 294.50187656 90.65725935 305.36673938 71.6796875 313.23828125 C70.32037109 313.84736328 70.32037109 313.84736328 68.93359375 314.46875 C58.29460391 318.96507211 46.98664653 321.082135 35.6796875 323.23828125 C34.29293823 323.51091797 34.29293823 323.51091797 32.87817383 323.7890625 C29.0265181 324.33001713 25.22514086 324.4194136 21.34375 324.44140625 C20.54673676 324.44710632 19.74972351 324.4528064 18.92855835 324.4586792 C17.24258738 324.4680947 15.5565983 324.47464941 13.87060547 324.47851562 C11.34698218 324.48812028 8.82421033 324.51913331 6.30078125 324.55078125 C-4.29307961 324.62021484 -13.98439657 323.61024331 -24.3203125 321.23828125 C-25.22281738 321.04476074 -26.12532227 320.85124023 -27.05517578 320.65185547 C-56.95555211 314.05079627 -82.3559704 298.12032244 -104.3203125 277.23828125 C-105.00351563 276.61953125 -105.68671875 276.00078125 -106.390625 275.36328125 C-121.52079725 261.1827014 -132.4711677 242.2639257 -140.3203125 223.23828125 C-140.73796875 222.26246094 -141.155625 221.28664063 -141.5859375 220.28125 C-145.18535379 211.48869997 -147.46954664 202.53253752 -149.3203125 193.23828125 C-149.50053955 192.40022949 -149.6807666 191.56217773 -149.86645508 190.69873047 C-151.53371808 182.1252969 -151.65910827 173.67726448 -151.63598633 164.9765625 C-151.63283517 162.50605709 -151.65633764 160.03676392 -151.68164062 157.56640625 C-151.72302642 147.08808555 -150.63041161 137.46523901 -148.3203125 127.23828125 C-148.02640461 125.86765008 -147.73352379 124.49679828 -147.44165039 123.12573242 C-138.70089216 83.14197421 -111.52454474 47.66810905 -77.67529297 25.44091797 C-54.58960029 10.68998585 -27.63644429 0.29103606 0 0 Z " fill="#020202" transform="translate(245.3203125,93.76171875)"/>
<path d="M0 0 C1.52753906 1.22203125 1.52753906 1.22203125 3.0859375 2.46875 C17.3342619 14.04606635 30.19230197 27.16123691 41 42 C41.48275391 42.64904297 41.96550781 43.29808594 42.46289062 43.96679688 C82.71119521 98.1650915 99.16439967 167.50590262 89.54345703 234.16308594 C86.11144526 256.4299519 80.25817176 278.41039793 71 299 C70.65243652 299.78117187 70.30487305 300.56234375 69.94677734 301.3671875 C59.42794615 324.79974248 45.92394897 345.72068916 29 365 C28.26136719 365.85078125 27.52273438 366.7015625 26.76171875 367.578125 C17.30726339 378.29432669 7.28592163 388.2185385 -4 397 C-5.43859375 398.16402344 -5.43859375 398.16402344 -6.90625 399.3515625 C-58.97340434 440.76861709 -127.78333939 458.90123079 -193.609375 451.6875 C-241.29538286 445.87803711 -286.32434498 427.92840907 -324 398 C-324.55461914 397.56252441 -325.10923828 397.12504883 -325.68066406 396.67431641 C-340.47137553 384.90550804 -353.95751062 371.35103586 -365 356 C-365.45036621 355.37802734 -365.90073242 354.75605469 -366.36474609 354.11523438 C-406.50186077 298.27961172 -423.92582348 229.66478401 -413.15234375 161.48046875 C-402.655433 98.75049276 -370.07875834 38.96658665 -319 0 C-318.45827148 -0.41813965 -317.91654297 -0.8362793 -317.35839844 -1.26708984 C-295.16346264 -18.32719052 -270.50597708 -31.97086096 -244 -41 C-243.10087891 -41.30921387 -242.20175781 -41.61842773 -241.27539062 -41.93701172 C-160.57892772 -69.24988036 -66.32453547 -54.15646824 0 0 Z M-158 -42 C-158.47052064 -35.38657103 -158.41547355 -31.32454164 -154 -26 C-151.86413322 -22.79619983 -151.76867825 -21.98060033 -151.875 -18.3125 C-151.89304687 -17.50425781 -151.91109375 -16.69601563 -151.9296875 -15.86328125 C-151.95289063 -15.24839844 -151.97609375 -14.63351563 -152 -14 C-159.87017759 -12.42253521 -159.87017759 -12.42253521 -163.8125 -14.4375 C-170.26241212 -21.99311134 -172.22854166 -31.46427744 -174 -41 C-187.12572297 -41.67697139 -199.19186014 -39.71890916 -212 -37 C-212.88381348 -36.81808105 -213.76762695 -36.63616211 -214.67822266 -36.44873047 C-254.46991213 -28.15848647 -289.25285134 -8.94648912 -320.25 16.9375 C-320.77513184 17.37392822 -321.30026367 17.81035645 -321.84130859 18.26000977 C-324.96053248 20.91877679 -327.53968268 23.7254348 -330 27 C-324.35821073 31.51107576 -320.21632984 34.46182049 -312.921875 34.78515625 C-311 35 -311 35 -308.375 36.625 C-307 39 -307 39 -307.0625 42.625 C-308 46 -308 46 -311 48 C-321.83367559 49.56651321 -329.11934694 45.9697455 -337.625 39.6875 C-338.75642779 38.79979875 -339.88405828 37.90709229 -341 37 C-353.28869936 50.90945301 -363.85917242 65.84913186 -373 82 C-373.36689941 82.63808594 -373.73379883 83.27617187 -374.11181641 83.93359375 C-383.97730606 101.20996054 -390.88778698 119.8089146 -396 139 C-396.42539062 140.48886719 -396.42539062 140.48886719 -396.859375 142.0078125 C-401.53484031 159.13528235 -403.28247017 177.29853627 -403 195 C-396.38657103 195.47052064 -392.32454164 195.41547355 -387 191 C-383.79619983 188.86413322 -382.98060033 188.76867825 -379.3125 188.875 C-378.50425781 188.89304688 -377.69601562 188.91109375 -376.86328125 188.9296875 C-376.24839844 188.95289063 -375.63351562 188.97609375 -375 189 C-373.56393443 195.94098361 -373.56393443 195.94098361 -375.3125 200.1875 C-381.12495984 206.27030681 -388.94864112 208.94237084 -397.1875 209.5625 C-398.27417969 209.64628906 -399.36085938 209.73007812 -400.48046875 209.81640625 C-401.31191406 209.87699219 -402.14335937 209.93757812 -403 210 C-400.05923187 269.42379736 -376.06370128 322.33719553 -336 366 C-332.17090182 364.49571143 -330.25714786 362.4119677 -328 359 C-326.99861814 355.73750046 -326.99861814 355.73750046 -326.4375 352.3125 C-325.80859375 348.86328125 -325.80859375 348.86328125 -325 346 C-322 344 -322 344 -318.4375 344.25 C-315 345 -315 345 -313 347 C-311.68693707 355.79446802 -313.80393937 363.40095772 -318.82421875 370.625 C-320.49930827 372.79955841 -322.21056808 374.91903142 -324 377 C-310.84618653 390.43976593 -295.2483143 400.70602876 -279 410 C-278.35611328 410.37125 -277.71222656 410.7425 -277.04882812 411.125 C-261.07744772 420.24245799 -243.74650221 427.18080828 -226 432 C-224.35837891 432.48533203 -224.35837891 432.48533203 -222.68359375 432.98046875 C-204.5973651 437.98630722 -184.78828958 441.16818381 -166 440 C-165.52947936 433.38657103 -165.58452645 429.32454164 -170 424 C-172.13586678 420.79619983 -172.23132175 419.98060033 -172.125 416.3125 C-172.10695312 415.50425781 -172.08890625 414.69601562 -172.0703125 413.86328125 C-172.04710937 413.24839844 -172.02390625 412.63351562 -172 412 C-165.05901639 410.56393443 -165.05901639 410.56393443 -160.8125 412.3125 C-154.72969319 418.12495984 -152.05762916 425.94864112 -151.4375 434.1875 C-151.35371094 435.27417969 -151.26992188 436.36085938 -151.18359375 437.48046875 C-151.12300781 438.31191406 -151.06242188 439.14335937 -151 440 C-142.70651916 440.32074235 -134.72620191 439.1171161 -126.5625 437.8125 C-125.84968872 437.69984802 -125.13687744 437.58719604 -124.40246582 437.47113037 C-113.34809095 435.70939173 -102.63602738 433.52383548 -92 430 C-90.86739746 429.64131836 -90.86739746 429.64131836 -89.71191406 429.27539062 C-63.15630108 420.83918528 -37.80193718 408.46128 -16 391 C-15.15566406 390.34644531 -14.31132812 389.69289063 -13.44140625 389.01953125 C-7.00217575 383.98668494 -0.9879218 378.55533429 5 373 C3.49571143 369.17090182 1.4119677 367.25714786 -2 365 C-5.26249954 363.99861814 -5.26249954 363.99861814 -8.6875 363.4375 C-12.13671875 362.80859375 -12.13671875 362.80859375 -15 362 C-17 359 -17 359 -16.75 355.4375 C-16 352 -16 352 -14 350 C-5.20553198 348.68693707 2.40095772 350.80393937 9.625 355.82421875 C11.79955841 357.49930827 13.91903142 359.21056808 16 361 C38.67468553 338.80775459 53.34578064 310.13554841 65 281 C65.7115625 279.22882813 65.7115625 279.22882813 66.4375 277.421875 C75.12824562 254.50003343 80.50159862 227.52611077 79 203 C72.38657103 202.52947936 68.32454164 202.58452645 63 207 C59.79619983 209.13586678 58.98060033 209.23132175 55.3125 209.125 C54.50425781 209.10695313 53.69601562 209.08890625 52.86328125 209.0703125 C52.24839844 209.04710937 51.63351562 209.02390625 51 209 C49.43384233 201.18623511 49.43384233 201.18623511 51.3125 197.25 C57.67026723 191.92721813 64.98122332 189.05517674 73.1875 188.4375 C74.27417969 188.35371094 75.36085938 188.26992187 76.48046875 188.18359375 C77.31191406 188.12300781 78.14335937 188.06242188 79 188 C76.7674707 137.19071246 58.87583791 87.08520064 26 48 C24.99217078 46.78777432 23.98435864 45.57553443 22.9765625 44.36328125 C17.71372254 37.97584922 17.71372254 37.97584922 12 32 C8.17827148 33.27390951 6.23813317 35.72173437 4.0234375 38.9296875 C2.55232269 41.90560677 2.50322858 44.70157124 2.28515625 47.97265625 C2 50 2 50 0.375 52.625 C-2 54 -2 54 -5.625 53.9375 C-9 53 -9 53 -11 50 C-12.32312809 41.61506034 -9.94256419 34.24056895 -5.17578125 27.37109375 C-3.49983188 25.19881861 -1.78861095 23.08001385 0 21 C-17.11949729 3.34551842 -38.81842556 -9.6776276 -61 -20 C-61.70543945 -20.3285498 -62.41087891 -20.65709961 -63.13769531 -20.99560547 C-92.33392053 -34.37884159 -125.66709403 -43.14116139 -158 -42 Z " fill="#000101" transform="translate(418,57)"/>
<path d="M0 0 C0.77279297 -0.00983917 1.54558594 -0.01967834 2.34179688 -0.02981567 C39.22508848 -0.40269622 74.44221478 6.58123345 104.6796875 29.23828125 C105.47584473 29.81884277 105.47584473 29.81884277 106.28808594 30.41113281 C140.69820756 55.58975376 164.12166227 93.23239528 171.6796875 135.23828125 C172.46870303 140.73114018 172.86024 146.08360272 172.91796875 151.62890625 C172.92762665 152.40757553 172.93728455 153.18624481 172.94723511 153.98851013 C172.97191229 156.48848284 172.98460668 158.98820017 172.9921875 161.48828125 C172.99513824 162.33943512 172.99808899 163.19058899 173.00112915 164.0675354 C173.0112741 176.90816241 172.17227398 188.8216227 168.6796875 201.23828125 C168.339375 202.72134766 168.339375 202.72134766 167.9921875 204.234375 C161.35981354 232.13179799 145.51244164 256.94894572 125.6796875 277.23828125 C125.04160156 277.93824219 124.40351563 278.63820313 123.74609375 279.359375 C109.61099354 294.50187656 90.65725935 305.36673938 71.6796875 313.23828125 C70.32037109 313.84736328 70.32037109 313.84736328 68.93359375 314.46875 C58.29460391 318.96507211 46.98664653 321.082135 35.6796875 323.23828125 C34.29293823 323.51091797 34.29293823 323.51091797 32.87817383 323.7890625 C29.0265181 324.33001713 25.22514086 324.4194136 21.34375 324.44140625 C20.54673676 324.44710632 19.74972351 324.4528064 18.92855835 324.4586792 C17.24258738 324.4680947 15.5565983 324.47464941 13.87060547 324.47851562 C11.34698218 324.48812028 8.82421033 324.51913331 6.30078125 324.55078125 C-4.29307961 324.62021484 -13.98439657 323.61024331 -24.3203125 321.23828125 C-25.22281738 321.04476074 -26.12532227 320.85124023 -27.05517578 320.65185547 C-56.95555211 314.05079627 -82.3559704 298.12032244 -104.3203125 277.23828125 C-105.00351563 276.61953125 -105.68671875 276.00078125 -106.390625 275.36328125 C-121.52079725 261.1827014 -132.4711677 242.2639257 -140.3203125 223.23828125 C-140.73796875 222.26246094 -141.155625 221.28664063 -141.5859375 220.28125 C-145.18535379 211.48869997 -147.46954664 202.53253752 -149.3203125 193.23828125 C-149.50053955 192.40022949 -149.6807666 191.56217773 -149.86645508 190.69873047 C-151.53371808 182.1252969 -151.65910827 173.67726448 -151.63598633 164.9765625 C-151.63283517 162.50605709 -151.65633764 160.03676392 -151.68164062 157.56640625 C-151.72302642 147.08808555 -150.63041161 137.46523901 -148.3203125 127.23828125 C-148.02640461 125.86765008 -147.73352379 124.49679828 -147.44165039 123.12573242 C-138.70089216 83.14197421 -111.52454474 47.66810905 -77.67529297 25.44091797 C-54.58960029 10.68998585 -27.63644429 0.29103606 0 0 Z M-21.3203125 28.23828125 C-22.485625 28.4703125 -23.6509375 28.70234375 -24.8515625 28.94140625 C-41.83893947 32.70817245 -58.75076629 41.43257165 -72.3203125 52.23828125 C-72.88508301 52.6878418 -73.44985352 53.13740234 -74.03173828 53.60058594 C-97.05080432 72.12369165 -114.44374591 96.53553859 -122.3203125 125.23828125 C-122.62453125 126.305625 -122.92875 127.37296875 -123.2421875 128.47265625 C-131.55167603 159.35886833 -127.10076148 193.78897835 -113.3203125 222.23828125 C-112.753125 223.41777344 -112.1859375 224.59726562 -111.6015625 225.8125 C-95.68200869 256.93823138 -67.02279726 281.8492699 -33.83544922 293.07910156 C-18.93854152 297.63442682 -4.01541734 299.68480923 11.5546875 299.67578125 C12.63185028 299.6763855 12.63185028 299.6763855 13.73077393 299.67700195 C34.20077576 299.61128221 52.25462702 295.1631258 70.6796875 286.23828125 C72.44892578 285.3875 72.44892578 285.3875 74.25390625 284.51953125 C106.20543556 268.17761517 130.86678886 238.93282511 141.9296875 204.80078125 C142.52694923 202.61704307 143.10966932 200.42928862 143.6796875 198.23828125 C144.0509375 197.03558594 144.4221875 195.83289063 144.8046875 194.59375 C150.48147923 174.76502472 149.69557785 150.12584648 144.6796875 130.23828125 C144.44765625 129.07296875 144.215625 127.90765625 143.9765625 126.70703125 C136.86995343 94.65761779 114.13275747 65.18867379 86.93188477 47.3215332 C74.36748334 39.34717527 61.10721319 32.99178387 46.6796875 29.23828125 C44.87564453 28.68140625 44.87564453 28.68140625 43.03515625 28.11328125 C23.20643097 22.43648952 -1.43274727 23.2223909 -21.3203125 28.23828125 Z " fill="#F9C554" transform="translate(245.3203125,93.76171875)"/>
<path d="M0 0 C0.79655502 -0.0033284 1.59311005 -0.0066568 2.4138031 -0.01008606 C4.09202504 -0.01511881 5.77025685 -0.01749552 7.44848633 -0.01733398 C9.96518279 -0.01950459 12.48142859 -0.03765565 14.99804688 -0.05664062 C24.99453078 -0.09183865 34.5558185 0.48899869 44.43359375 2.16796875 C45.23128174 2.30340088 46.02896973 2.43883301 46.85083008 2.57836914 C74.68445643 7.77518562 103.05956194 21.6120884 124.43359375 40.16796875 C125.6246875 41.19470703 125.6246875 41.19470703 126.83984375 42.2421875 C154.46171295 66.58614501 173.78847905 96.65722499 183.68359375 132.29296875 C183.92996582 133.17484863 184.17633789 134.05672852 184.43017578 134.96533203 C187.82222188 147.67788627 188.75945718 159.95161377 188.69433594 173.04223633 C188.68362479 175.59806108 188.69428532 178.15318095 188.70703125 180.70898438 C188.71558226 190.39393919 188.15980697 199.61630812 186.43359375 209.16796875 C186.29824219 209.96920166 186.16289062 210.77043457 186.0234375 211.59594727 C180.1773755 244.58928298 162.85915698 275.6263315 139.86621094 299.66796875 C138.91608768 300.66278083 137.97134035 301.66275705 137.03222656 302.66796875 C109.97435047 331.58995739 67.48230708 352.84516266 27.50244141 354.23510742 C22.81259553 354.35835446 18.12394205 354.39717768 13.43261719 354.40820312 C10.96644452 354.41784038 8.50113204 354.44891688 6.03515625 354.48046875 C-8.62019403 354.57877705 -22.79553601 352.68904213 -36.87890625 348.54296875 C-37.74008057 348.29208496 -38.60125488 348.04120117 -39.48852539 347.78271484 C-66.36471181 339.62661153 -91.04031631 325.29361599 -111.08740234 305.61621094 C-112.52997924 304.20363812 -113.9952338 302.81434265 -115.4609375 301.42578125 C-138.70264463 278.99672122 -156.1854973 246.83081242 -162.56640625 215.16796875 C-162.7571875 214.31332031 -162.94796875 213.45867187 -163.14453125 212.578125 C-165.54019105 201.47253066 -165.78011178 190.4277174 -165.80664062 179.11206055 C-165.81629157 176.63490495 -165.84737459 174.1586007 -165.87890625 171.68164062 C-165.95084917 160.85251249 -164.84631309 150.74884103 -162.56640625 140.16796875 C-162.37288574 139.24862549 -162.17936523 138.32928223 -161.97998047 137.38208008 C-154.7699261 105.05214204 -138.46121556 76.85567189 -115.56640625 53.16796875 C-114.68339844 52.23339844 -113.80039063 51.29882812 -112.890625 50.3359375 C-84.52017997 20.98012246 -41.05874105 0.06150726 0 0 Z M-23.56640625 18.16796875 C-24.93703742 18.46187664 -26.30788922 18.75475746 -27.67895508 19.04663086 C-56.62858869 25.37524426 -82.5854876 41.65919454 -103.56640625 62.16796875 C-104.26636719 62.80605469 -104.96632812 63.44414062 -105.6875 64.1015625 C-117.41252195 75.04654141 -126.34881428 88.95597219 -133.56640625 103.16796875 C-133.88303223 103.78349609 -134.1996582 104.39902344 -134.52587891 105.03320312 C-144.20501461 124.05788552 -150.57889752 145.04752826 -150.8046875 166.48828125 C-150.81452667 167.26107422 -150.82436584 168.03386719 -150.83450317 168.83007812 C-151.31581681 216.43897444 -137.31019039 256.05716407 -104.56640625 291.16796875 C-103.86902344 291.91949219 -103.17164063 292.67101562 -102.453125 293.4453125 C-77.86087048 319.02665221 -39.20806425 338.23818215 -3.48730469 339.3449707 C-2.05022253 339.37109739 -0.613023 339.39128776 0.82421875 339.40625 C1.60288803 339.4159079 2.38155731 339.4255658 3.18382263 339.43551636 C5.68379534 339.46019354 8.18351267 339.47288793 10.68359375 339.48046875 C11.53474762 339.48341949 12.38590149 339.48637024 13.2628479 339.4894104 C26.10347491 339.49955535 38.0169352 338.66055523 50.43359375 335.16796875 C51.42230469 334.94109375 52.41101563 334.71421875 53.4296875 334.48046875 C94.08491751 324.81503517 129.04931041 296.42191761 150.8137207 261.39819336 C155.30829314 253.93868024 158.95881885 246.14296143 162.43359375 238.16796875 C163.14128906 236.60755859 163.14128906 236.60755859 163.86328125 235.015625 C168.28851097 224.55724048 170.31416171 213.28239626 172.43359375 202.16796875 C172.61535156 201.24346924 172.79710937 200.31896973 172.984375 199.36645508 C173.52532963 195.51479935 173.6147261 191.71342211 173.63671875 187.83203125 C173.64241882 187.03501801 173.6481189 186.23800476 173.6539917 185.4168396 C173.6634072 183.73086863 173.66996191 182.04487955 173.67382812 180.35888672 C173.68343278 177.83526343 173.71444581 175.31249158 173.74609375 172.7890625 C173.81552734 162.19520164 172.80555581 152.50388468 170.43359375 142.16796875 C170.24007324 141.26546387 170.04655273 140.36295898 169.84716797 139.43310547 C167.17316554 127.32085553 162.89299391 116.27923055 157.43359375 105.16796875 C156.88960938 104.04003906 156.345625 102.91210938 155.78515625 101.75 C148.21817308 86.8928745 138.03983078 74.03465429 126.43359375 62.16796875 C125.71042969 61.38292969 124.98726563 60.59789062 124.2421875 59.7890625 C109.98778322 44.66911564 91.37240972 34.25420478 72.43359375 26.16796875 C71.41136719 25.72710937 70.38914062 25.28625 69.3359375 24.83203125 C60.59834289 21.25903717 51.66889976 19.00699584 42.43359375 17.16796875 C41.59554199 16.9877417 40.75749023 16.80751465 39.89404297 16.62182617 C31.3206094 14.95456317 22.87257698 14.82917298 14.171875 14.85229492 C11.70136959 14.85544608 9.23207642 14.83194361 6.76171875 14.80664062 C-3.71660195 14.76525483 -13.33944849 15.85786964 -23.56640625 18.16796875 Z " fill="#020201" transform="translate(244.56640625,78.83203125)"/>
<path d="M0 0 C8.57557086 6.2297869 14.48221186 15.05077871 17.30078125 25.2734375 C17.74068674 28.34903928 17.82616567 31.35673991 17.80078125 34.4609375 C17.79433594 35.29101318 17.78789062 36.12108887 17.78125 36.97631836 C17.43018573 48.91365837 12.91710057 58.94969269 4.30078125 67.2734375 C-4.61973269 74.24382431 -13.69428586 77.86651806 -25.01171875 77.7734375 C-25.83986084 77.76699219 -26.66800293 77.76054687 -27.52124023 77.75390625 C-39.15844967 77.409268 -48.57064294 72.57077267 -56.69921875 64.2734375 C-63.61993096 55.31568548 -67.28495208 46.83264098 -67.19921875 35.5234375 C-67.19349854 34.64453857 -67.18777832 33.76563965 -67.18188477 32.86010742 C-66.8739487 21.59296529 -62.63935948 12.30626469 -54.69921875 4.2734375 C-51.53884986 1.59191238 -48.27037551 -0.62843996 -44.69921875 -2.7265625 C-43.62994141 -3.38011719 -43.62994141 -3.38011719 -42.5390625 -4.046875 C-29.21856749 -10.76585484 -11.99342785 -7.67162823 0 0 Z " fill="#FAC654" transform="translate(280.69921875,220.7265625)"/>
<path d="M0 0 C0.78458588 0.24255524 1.56917175 0.48511047 2.37753296 0.73501587 C3.9760218 0.82234698 5.57744312 0.86557883 7.17831421 0.86782837 C8.07356812 0.86911743 8.96882202 0.87040649 9.89120483 0.87173462 C10.81481812 0.86786743 11.7384314 0.86400024 12.69003296 0.86001587 C13.60204468 0.86388306 14.5140564 0.86775024 15.45370483 0.87173462 C16.80238647 0.86980103 16.80238647 0.86980103 18.17831421 0.86782837 C19.38741455 0.86613647 19.38741455 0.86613647 20.62094116 0.8644104 C23.57223695 0.84550178 23.57223695 0.84550178 26.99740601 -0.4234314 C30.19730817 -0.82488632 31.24013774 -0.36028918 33.93559265 1.50942993 C36.96921201 4.28102108 39.82212494 7.16737498 42.65878296 10.13735962 C43.72154058 11.21691384 44.78631074 12.29449021 45.85299683 13.37016296 C48.64834499 16.19979239 51.41561225 19.05539422 54.17782593 21.91732788 C57.00392218 24.83567211 59.85583234 27.72854488 62.70565796 30.62368774 C68.28848571 36.30289283 73.84189638 42.00980465 79.37753296 47.73501587 C69.90770608 57.774483 53.26195149 61.38706379 40.37753296 64.73501587 C39.69779419 64.93224243 39.01805542 65.12946899 38.31771851 65.33267212 C31.64618799 67.09859642 24.9808037 67.03850122 18.11312866 66.99575806 C16.07921151 66.98509024 14.04618807 66.99567552 12.01229858 67.00845337 C3.92609097 66.99265228 -3.70661254 66.38801702 -11.62246704 64.73501587 C-12.88317017 64.47462524 -14.14387329 64.21423462 -15.44277954 63.94595337 C-27.82494292 60.81382221 -40.14439256 56.1507779 -50.62246704 48.73501587 C-43.11626175 39.72543166 -34.75172582 31.52719655 -26.50015259 23.20767212 C-24.52995827 21.21953641 -22.56867195 19.22318794 -20.6144104 17.21939087 C-17.7888071 14.32230367 -14.93928768 11.4498973 -12.08731079 8.57876587 C-11.21324081 7.67686523 -10.33917084 6.7749646 -9.43861389 5.84573364 C-8.61748611 5.02738037 -7.79635834 4.2090271 -6.9503479 3.36587524 C-6.2334227 2.63864258 -5.5164975 1.91140991 -4.77784729 1.16213989 C-2.62246704 -0.26498413 -2.62246704 -0.26498413 0 0 Z " fill="#E0E6F4" transform="translate(241.62246704101563,311.2649841308594)"/>
<path d="M0 0 C15.38162175 29.73271301 23.69323701 63.61734128 13.484375 96.62109375 C12.99496558 98.08254261 12.50025744 99.54222881 12 101 C11.76474609 101.72203613 11.52949219 102.44407227 11.28710938 103.18798828 C8.23245894 112.49289109 4.29299931 120.73164604 -1 129 C-9.44216012 121.94721911 -17.22472718 114.2106679 -25.05509186 106.49334908 C-27.52939417 104.05498404 -30.01186117 101.62639709 -32.515625 99.21826172 C-35.42119186 96.42325416 -38.28927097 93.59239397 -41.15625 90.7578125 C-42.05815063 89.89922638 -42.96005127 89.04064026 -43.88928223 88.15603638 C-49.82300191 82.20384228 -49.82300191 82.20384228 -50.32376099 78.79795837 C-50.06103516 76.71508789 -50.06103516 76.71508789 -49 73 C-48.91871245 71.2682685 -48.86961338 69.53441782 -48.8671875 67.80078125 C-48.86589844 66.90166016 -48.86460937 66.00253906 -48.86328125 65.07617188 C-48.86714844 64.16416016 -48.87101562 63.25214844 -48.875 62.3125 C-48.86919922 60.92708008 -48.86919922 60.92708008 -48.86328125 59.51367188 C-48.86457031 58.61841797 -48.86585938 57.72316406 -48.8671875 56.80078125 C-48.86831543 55.99809814 -48.86944336 55.19541504 -48.87060547 54.3684082 C-48.8993241 51.96537378 -48.8993241 51.96537378 -49.76766968 49.65710449 C-50 47 -50 47 -48.35614014 44.61442566 C-47.11395721 43.37865532 -47.11395721 43.37865532 -45.84667969 42.11791992 C-45.39322678 41.65877197 -44.93977386 41.19962402 -44.47257996 40.7265625 C-42.96994379 39.21281223 -41.44679465 37.72174279 -39.921875 36.23046875 C-38.87278847 35.18495846 -37.8248084 34.13833686 -36.77789307 33.09065247 C-34.58095321 30.89840539 -32.37430017 28.71660623 -30.15966797 26.54223633 C-27.31831236 23.7518828 -24.49714115 20.94215161 -21.68232346 18.12505627 C-19.51964443 15.96319217 -17.34924138 13.80922919 -15.17612457 11.65786171 C-14.13291168 10.6242081 -13.091517 9.58871619 -12.05196381 8.55138206 C-10.59898733 7.1048959 -9.13657328 5.66871036 -7.67089844 4.23510742 C-6.83959412 3.41523849 -6.00828979 2.59536957 -5.15179443 1.75065613 C-3 0 -3 0 0 0 Z " fill="#E0E6F4" transform="translate(361,192)"/>
<path d="M0 0 C9.00958421 7.50620529 17.20781932 15.87074122 25.52734375 24.12231445 C27.51547946 26.09250877 29.51182793 28.05379509 31.515625 30.00805664 C34.4127122 32.83365994 37.28511857 35.68317936 40.15625 38.53515625 C41.05815063 39.40922623 41.96005127 40.2832962 42.88928223 41.18385315 C43.7076355 42.00498093 44.52598877 42.8261087 45.36914062 43.67211914 C46.09637329 44.38904434 46.82360596 45.10596954 47.57287598 45.84461975 C49 48 49 48 48.73501587 50.62246704 C48.49246063 51.40705292 48.2499054 52.19163879 48 53 C47.91266889 54.59848884 47.86943704 56.19991016 47.8671875 57.80078125 C47.86589844 58.69603516 47.86460937 59.59128906 47.86328125 60.51367188 C47.86714844 61.43728516 47.87101562 62.36089844 47.875 63.3125 C47.87113281 64.22451172 47.86726563 65.13652344 47.86328125 66.07617188 C47.86457031 66.97529297 47.86585938 67.87441406 47.8671875 68.80078125 C47.86887939 70.00988159 47.86887939 70.00988159 47.87060547 71.2434082 C47.89227055 74.19499995 47.89227055 74.19499995 49.13818359 77.63354492 C49.53456321 80.79078047 49.10545769 81.84508808 47.28500366 84.51924133 C44.60247813 87.49340704 41.80599985 90.28646735 38.921875 93.0625 C37.87213603 94.10306027 36.8241653 95.14540715 35.77789307 96.18945312 C33.58516651 98.36839698 31.37857771 100.53181229 29.15966797 102.68408203 C26.31307799 105.44561393 23.49337082 108.2327219 20.68232346 111.03038025 C18.52023391 113.18001483 16.34978323 115.3210234 14.17612457 117.45895386 C13.13332807 118.48464268 12.09193456 119.51175991 11.05196381 120.54031372 C9.59939013 121.9723122 8.13540596 123.39270859 6.67089844 124.8125 C5.83959412 125.62332031 5.00828979 126.43414062 4.15179443 127.26953125 C2 129 2 129 -1 129 C-5.39640596 120.80974118 -9.37740392 112.64834227 -12.3125 103.8125 C-12.54211426 103.12623535 -12.77172852 102.4399707 -13.00830078 101.73291016 C-13.72194586 99.50009375 -14.37159519 97.2583298 -15 95 C-15.27070313 94.0411792 -15.54140625 93.0823584 -15.8203125 92.09448242 C-18.02611685 83.56201826 -18.4682244 75.47606818 -18.375 66.6875 C-18.37101196 66.00712677 -18.36702393 65.32675354 -18.36291504 64.62576294 C-18.29281089 54.42276357 -17.67023538 44.87177929 -15 35 C-14.73316406 33.85789063 -14.46632812 32.71578125 -14.19140625 31.5390625 C-11.49846168 20.88697065 -7.13687561 8.58203734 0 0 Z " fill="#E0E6F4" transform="translate(152,191)"/>
<path d="M0 0 C0.73911621 0.23525391 1.47823242 0.47050781 2.23974609 0.71289062 C11.49507261 3.72538426 19.79258054 7.746008 28 13 C20.94721911 21.44216012 13.2106679 29.22472718 5.49334908 37.05509186 C3.05498404 39.52939417 0.62639709 42.01186117 -1.78173828 44.515625 C-4.57674584 47.42119186 -7.40760603 50.28927097 -10.2421875 53.15625 C-11.10077362 54.05815063 -11.95935974 54.96005127 -12.84396362 55.88928223 C-18.79615772 61.82300191 -18.79615772 61.82300191 -22.20204163 62.32376099 C-24.28491211 62.06103516 -24.28491211 62.06103516 -28 61 C-29.7317315 60.91871245 -31.46558218 60.86961338 -33.19921875 60.8671875 C-34.09833984 60.86589844 -34.99746094 60.86460937 -35.92382812 60.86328125 C-36.83583984 60.86714844 -37.74785156 60.87101562 -38.6875 60.875 C-39.61111328 60.87113281 -40.53472656 60.86726563 -41.48632812 60.86328125 C-42.82920898 60.86521484 -42.82920898 60.86521484 -44.19921875 60.8671875 C-45.40324341 60.86887939 -45.40324341 60.86887939 -46.6315918 60.87060547 C-49.03468005 60.89776491 -49.03468005 60.89776491 -51.3371582 61.77638245 C-54 62 -54 62 -56.42353821 60.29798889 C-57.26514999 59.44305344 -58.10676178 58.58811798 -58.97387695 57.70727539 C-59.44277847 57.23925003 -59.91167999 56.77122467 -60.39479065 56.28901672 C-61.94060089 54.73902742 -63.46408228 53.16887807 -64.98828125 51.59765625 C-66.05599313 50.51875339 -67.12503785 49.44116803 -68.19535828 48.36485291 C-71.00847169 45.52883371 -73.80310527 42.67526073 -76.59429932 39.81768799 C-79.44582704 36.9047761 -82.3144223 34.00878206 -85.18164062 31.11132812 C-90.80462925 25.423996 -96.40821279 19.71801137 -102 14 C-98.97296174 10.75190526 -95.44463478 8.99481791 -91.5 7.0625 C-90.42141724 6.53136597 -90.42141724 6.53136597 -89.32104492 5.98950195 C-61.96903157 -7.2814369 -28.90805104 -9.42371546 0 0 Z " fill="#E0E6F4" transform="translate(293,139)"/>
<path d="M0 0 C5.79835896 4.81437438 11.12281785 9.99248432 16.43359375 15.3359375 C17.31153091 16.21528961 18.18946808 17.09464172 19.0940094 18.00064087 C21.87754412 20.78974058 24.65756769 23.58231018 27.4375 26.375 C29.33216665 28.2752542 31.2275963 30.17474653 33.12304688 32.07421875 C37.75135161 36.71350604 42.37678421 41.35564167 47 46 C44.25311804 48.76769167 41.54931376 51.44417913 38.5 53.875 C34.94630383 56.86103792 32.55119836 60.13454795 30 64 C24.20164104 59.18562562 18.87718215 54.00751568 13.56640625 48.6640625 C12.68846909 47.78471039 11.81053192 46.90535828 10.9059906 45.99935913 C8.12245588 43.21025942 5.34243231 40.41768982 2.5625 37.625 C0.66783335 35.7247458 -1.2275963 33.82525347 -3.12304688 31.92578125 C-7.75135161 27.28649396 -12.37678421 22.64435833 -17 18 C-16.06548496 16.72620033 -15.12705142 15.45527493 -14.18701172 14.18554688 C-13.66485077 13.47748901 -13.14268982 12.76943115 -12.60470581 12.03991699 C-10.3484193 9.17170454 -7.8691495 6.90949712 -5.125 4.5 C-4.15820312 3.6440625 -3.19140625 2.788125 -2.1953125 1.90625 C-1.47085938 1.2771875 -0.74640625 0.648125 0 0 Z " fill="#566372" transform="translate(178,161)"/>
<path d="M0 0 C5.79835896 4.81437438 11.12281785 9.99248432 16.43359375 15.3359375 C17.31153091 16.21528961 18.18946808 17.09464172 19.0940094 18.00064087 C21.87754412 20.78974058 24.65756769 23.58231018 27.4375 26.375 C29.33216665 28.2752542 31.2275963 30.17474653 33.12304688 32.07421875 C37.75135161 36.71350604 42.37678421 41.35564167 47 46 C46.06548496 47.27379967 45.12705142 48.54472507 44.18701172 49.81445312 C43.66485077 50.52251099 43.14268982 51.23056885 42.60470581 51.96008301 C40.3484193 54.82829546 37.8691495 57.09050288 35.125 59.5 C34.15820312 60.3559375 33.19140625 61.211875 32.1953125 62.09375 C31.47085938 62.7228125 30.74640625 63.351875 30 64 C24.20164104 59.18562562 18.87718215 54.00751568 13.56640625 48.6640625 C12.68846909 47.78471039 11.81053192 46.90535828 10.9059906 45.99935913 C8.12245588 43.21025942 5.34243231 40.41768982 2.5625 37.625 C0.66783335 35.7247458 -1.2275963 33.82525347 -3.12304688 31.92578125 C-7.75135161 27.28649396 -12.37678421 22.64435833 -17 18 C-14.43477923 15.39152087 -11.94060384 12.95324132 -9.0625 10.6875 C-5.34249219 7.67284432 -2.75009663 3.87935263 0 0 Z " fill="#566372" transform="translate(304,287)"/>
<path d="M0 0 C2.60847913 2.56522077 5.04675868 5.05939616 7.3125 7.9375 C10.32715568 11.65750781 14.12064737 14.24990337 18 17 C13.18562562 22.79835896 8.00751568 28.12281785 2.6640625 33.43359375 C1.78471039 34.31153091 0.90535828 35.18946808 -0.00064087 36.0940094 C-2.78974058 38.87754412 -5.58231018 41.65756769 -8.375 44.4375 C-10.2752542 46.33216665 -12.17474653 48.2275963 -14.07421875 50.12304688 C-18.71350604 54.75135161 -23.35564167 59.37678421 -28 64 C-29.27379967 63.06548496 -30.54472507 62.12705142 -31.81445312 61.18701172 C-32.52251099 60.66485077 -33.23056885 60.14268982 -33.96008301 59.60470581 C-36.82829546 57.3484193 -39.09050288 54.8691495 -41.5 52.125 C-42.3559375 51.15820312 -43.211875 50.19140625 -44.09375 49.1953125 C-44.7228125 48.47085938 -45.351875 47.74640625 -46 47 C-41.18562562 41.20164104 -36.00751568 35.87718215 -30.6640625 30.56640625 C-29.78471039 29.68846909 -28.90535828 28.81053192 -27.99935913 27.9059906 C-25.21025942 25.12245588 -22.41768982 22.34243231 -19.625 19.5625 C-17.7247458 17.66783335 -15.82525347 15.7724037 -13.92578125 13.87695312 C-9.28649396 9.24864839 -4.64435833 4.62321579 0 0 Z " fill="#566372" transform="translate(207,287)"/>
<path d="M0 0 C1.27379967 0.93451504 2.54472507 1.87294858 3.81445312 2.81298828 C4.52251099 3.33514923 5.23056885 3.85731018 5.96008301 4.39529419 C8.82829546 6.6515807 11.09050288 9.1308505 13.5 11.875 C14.3559375 12.84179688 15.211875 13.80859375 16.09375 14.8046875 C16.7228125 15.52914062 17.351875 16.25359375 18 17 C13.18562562 22.79835896 8.00751568 28.12281785 2.6640625 33.43359375 C1.78471039 34.31153091 0.90535828 35.18946808 -0.00064087 36.0940094 C-2.78974058 38.87754412 -5.58231018 41.65756769 -8.375 44.4375 C-10.2752542 46.33216665 -12.17474653 48.2275963 -14.07421875 50.12304688 C-18.71350604 54.75135161 -23.35564167 59.37678421 -28 64 C-30.76769167 61.25311804 -33.44417913 58.54931376 -35.875 55.5 C-38.86103792 51.94630383 -42.13454795 49.55119836 -46 47 C-41.18562562 41.20164104 -36.00751568 35.87718215 -30.6640625 30.56640625 C-29.78471039 29.68846909 -28.90535828 28.81053192 -27.99935913 27.9059906 C-25.21025942 25.12245588 -22.41768982 22.34243231 -19.625 19.5625 C-17.7247458 17.66783335 -15.82525347 15.7724037 -13.92578125 13.87695312 C-9.28649396 9.24864839 -4.64435833 4.62321579 0 0 Z " fill="#566372" transform="translate(333,161)"/>
</svg>
